<svg width="155" height="155" viewBox="0 0 155 155" fill="none" xmlns="http://www.w3.org/2000/svg">
<mask id="mask0_3_90" style="mask-type:alpha" maskUnits="userSpaceOnUse" x="0" y="0" width="155" height="155">
<path d="M77.4692 3.58233e-05L0 77.4692L77.4692 154.938L154.938 77.4692L77.4692 3.58233e-05Z" fill="#937ED0"/>
</mask>
<g mask="url(#mask0_3_90)">
<path d="M77.4692 3.58233e-05L0 77.4692L77.4692 154.938L154.938 77.4692L77.4692 3.58233e-05Z" fill="#4DCDB9"/>
<path d="M76.2318 -97.688L79.2821 58.9358L135.717 -87.1991L85.0149 61.0224L188.027 -56.9977L89.6883 64.9438L226.854 -10.7264L92.7387 70.2272L247.513 46.0338L93.798 76.2352L247.513 106.437L92.7387 82.2432L226.854 163.197L89.6883 87.5266L188.027 209.468L85.0149 91.448L135.717 239.67L79.2821 93.5346L76.2318 250.158L73.1814 93.5346L16.7466 239.67L67.4487 91.448L-35.5639 209.468L62.7753 87.5266L-74.3901 163.197L59.7249 82.2432L-95.0491 106.437L58.6655 76.2352L-95.0491 46.0338L59.7249 70.2272L-74.3901 -10.7264L62.7753 64.9438L-35.5639 -56.9977L67.4487 61.0224L16.7466 -87.1991L73.1814 58.9358L76.2318 -97.688Z" fill="#FFE6D0"/>
<path d="M132.382 123.254H22.8242V164.338H132.382V123.254Z" fill="#7E69AC"/>
<path d="M42.5 90.0171L74.913 130.597L26 131.051L21 103L42.5 90.0171Z" fill="#7E69AC"/>
<path d="M115.929 90.0171L135.558 100V131.471L35.5863 130.962L115.929 90.0171Z" fill="#7E69AC"/>
<path d="M76.6706 76.6924L120.494 131.395L33.304 130.983L76.6706 76.6924Z" fill="#7E69AC"/>
</g>
</svg>
